#!OML:ASF E:\emotionWalksFemale\Project 1\Capture day 1\Session 1\Female1.ASF
:FULLY-SPECIFIED
:DEGREES
205
root 8.85691 11.8123 22.8848 -132.315 -4.4063 -180.152
lowerback 40.5097 1.83699 -0.387177
upperback 2.07377 1.19597 0.296137
thorax -17.6391 0.128108 0.0797772
lowerneck -12.4118 -2.45637 -4.66649
upperneck -22.0614 -4.76332 7.65248
head -4.38087 -3.83279 3.30804
rclavicle 6.36111e-015 -9.64106e-015
rhumerus -44.244 67.0161 -42.9282
rradius 93.1123
rwrist -5.97916
rhand -8.58034 -40.7885
rfingers 7.12502
rthumb 17.3504 -70.0341
lclavicle 6.36111e-015 -9.64106e-015
lhumerus -88.4154 -28.9189 74.9936
lradius 71.672
lwrist 7.06734
lhand -19.6359 -63.1905
lfingers 7.12502
lthumb 6.69127 -33.3162
rfemur -100.147 -2.94663 33.3982
rtibia 98.3692
rfoot -34.0926 -15.7767
rtoes -6.82173
lfemur -101.465 1.28028 -29.3189
ltibia 93.5621
lfoot -39.5015 0.312921
ltoes -31.7165
206
root 8.86233 11.8212 22.8339 -132.214 -4.59451 -180.301
lowerback 40.7023 1.81162 -0.341885
upperback 2.07797 1.18094 0.318413
thorax -17.7033 0.116533 0.0876398
lowerneck -12.5366 -2.4968 -4.6253
upperneck -21.9571 -4.80893 7.65626
head -4.32751 -3.85047 3.29438
rclavicle 6.36111e-015 -5.86415e-015
rhumerus -48.1151 65.9126 -46.5101
rradius 92.7674
rwrist -5.85107
rhand -8.6907 -40.5059
rfingers 7.12502
rthumb 17.2441 -69.7608
lclavicle 6.36111e-015 -5.86415e-015
lhumerus -89.5054 -27.8473 75.5544
lradius 71.5911
lwrist 6.75261
lhand -19.3932 -62.868
lfingers 7.12502
lthumb 6.9256 -33.0013
rfemur -100.094 -3.17862 33.5796
rtibia 98.5053
rfoot -34.2197 -15.7209
rtoes -5.84481
lfemur -101.249 1.14926 -29.4719
ltibia 93.4954
lfoot -39.4329 1.46732
ltoes -33.9395
207
root 8.87075 11.8378 22.7828 -132.136 -4.76645 -180.401
lowerback 40.7059 1.79653 -0.29007
upperback 2.17121 1.17537 0.34735
thorax -17.5885 0.106242 0.0972371
lowerneck -12.7541 -2.56129 -4.56671
upperneck -21.8805 -4.90557 7.64711
head -4.26753 -3.90242 3.27249
rclavicle 0 -4.67144e-015
rhumerus -51.3959 64.86 -49.2845
rradius 92.8666
rwrist -5.90003
rhand -9.00529 -40.5165
rfingers 7.12502
rthumb 16.9413 -69.7976
lclavicle 0 -4.67144e-015
lhumerus -90.3643 -26.7573 76.0792
lradius 71.7442
lwrist 6.57744
lhand -19.1331 -62.5946
lfingers 7.12502
lthumb 7.17667 -32.7363
rfemur -99.9206 -3.37293 33.8045
rtibia 98.5321
rfoot -34.3453 -15.618
rtoes -5.05121
lfemur -100.984 1.12113 -29.5688
ltibia 93.4041
lfoot -39.4206 1.78399
ltoes -34.4466
208
root 8.88167 11.8551 22.7318 -131.975 -4.88677 -180.509
lowerback 40.7606 1.8078 -0.335679
upperback 2.21048 1.1739 0.415091
thorax -17.5623 0.10866 0.198607
lowerneck -12.6855 -2.60315 -4.66952
upperneck -22.0551 -4.95452 7.73556
head -4.32415 -3.93756 3.32584
rclavicle 6.36111e-015 6.55989e-015
rhumerus -54.2309 63.1425 -52.5683
rradius 92.0897
rwrist -5.29748
rhand -9.73659 -40.5216
rfingers 7.12502
rthumb 16.2373 -69.8616
lclavicle 6.36111e-015 6.55989e-015
lhumerus -91.1145 -25.8033 76.7839
lradius 71.9873
lwrist 6.75792
lhand -19.3228 -62.1994
lfingers 7.12502
lthumb 6.99358 -32.335
rfemur -99.8248 -3.45197 33.9796
rtibia 98.5037
rfoot -34.3346 -15.919
rtoes -5.41983
lfemur -100.82 1.10792 -29.6367
ltibia 93.2746
lfoot -39.3437 1.18055
ltoes -32.5266
209
root 8.89431 11.8707 22.6776 -131.776 -4.97858 -180.612
lowerback 40.6241 1.78647 -0.36315
upperback 2.23034 1.13369 0.378918
thorax -17.4878 0.09561 0.192288
lowerneck -12.4809 -2.59389 -4.60857
upperneck -22.274 -4.93797 7.84468
head -4.42102 -3.95154 3.36398
rclavicle 5.96354e-015 -1.39149e-015
rhumerus -56.6321 61.5398 -55.0308
rradius 91.8763
rwrist -5.36168
rhand -10.2851 -40.7124
rfingers 7.12502
rthumb 15.7091 -70.0948
lclavicle 5.96354e-015 -1.39149e-015
lhumerus -91.3872 -24.724 77.2001
lradius 71.7229
lwrist 6.78266
lhand -19.2018 -61.8124
lfingers 7.12502
lthumb 7.11038 -31.9519
rfemur -99.7866 -3.42517 34.1349
rtibia 98.4641
rfoot -34.156 -16.7369
rtoes -6.67512
lfemur -100.676 1.10271 -29.7079
ltibia 93.1445
lfoot -39.2722 0.839068
ltoes -31.4596
210
root 8.90555 11.8908 22.6207 -131.656 -5.12588 -180.694
lowerback 40.6431 1.77955 -0.397629
upperback 2.26357 1.11936 0.460664
thorax -17.4563 0.0931902 0.309678
lowerneck -12.4653 -2.57905 -4.55399
upperneck -22.3493 -4.94519 7.73474
head -4.45262 -3.96111 3.32397
rclavicle -1.78906e-014 -1.95803e-014
rhumerus -58.5663 59.511 -57.5817
rradius 90.98
rwrist -5.03038
rhand -10.5181 -41.0203
rfingers 7.12502
rthumb 15.4847 -70.4202
lclavicle -1.78906e-014 -1.95803e-014
lhumerus -91.4136 -23.5242 77.7458
lradius 71.4163
lwrist 6.76554
lhand -19.0542 -62.3402
lfingers 7.12502
lthumb 7.25279 -32.4845
rfemur -99.6017 -3.42923 34.2784
rtibia 98.3755
rfoot -33.9495 -17.4087
rtoes -7.29555
lfemur -100.425 1.11021 -29.7229
ltibia 93.0446
lfoot -39.2959 0.556485
ltoes -30.8342
211
root 8.91572 11.9121 22.562 -131.627 -5.24256 -180.81
lowerback 40.6509 1.74466 -0.276753
upperback 2.29224 1.11651 0.407686
thorax -17.4197 0.0803954 0.188013
lowerneck -12.7056 -2.66192 -4.26788
upperneck -22.1869 -5.1064 7.53161
head -4.3717 -4.04433 3.19768
rclavicle 2.18663e-014 -7.95139e-016
rhumerus -60.4665 57.4798 -59.9841
rradius 90.3086
rwrist -5.04012
rhand -10.6449 -41.4639
rfingers 7.12502
rthumb 15.3626 -70.8732
lclavicle 2.18663e-014 -7.95139e-016
lhumerus -89.3936 -21.8699 78.042
lradius 69.2173
lwrist 5.84318
lhand -19.6166 -63.9436
lfingers 7.12502
lthumb 6.70996 -34.0699
rfemur -99.2879 -3.46174 34.2369
rtibia 98.298
rfoot -33.9745 -17.4575
rtoes -5.92287
lfemur -100.043 1.1306 -29.7569
ltibia 92.9373
lfoot -39.2909 -0.0478389
ltoes -28.9842
212
root 8.92655 11.9334 22.5012 -131.564 -5.35288 -180.921
lowerback 40.7002 1.72532 -0.227881
upperback 2.35346 1.1035 0.416313
thorax -17.3609 0.067611 0.179173
lowerneck -12.8493 -2.71299 -4.17979
upperneck -22.2665 -5.21105 7.49617
head -4.37386 -4.11579 3.17095
rclavicle -1.59028e-015 6.55989e-015
rhumerus -61.4098 55.2644 -61.5459
rradius 89.6107
rwrist -4.84832
rhand -11.0398 -41.6354
rfingers 7.12502
rthumb 14.9821 -71.0735
lclavicle -1.59028e-015 6.55989e-015
lhumerus -87.493 -20.3197 78.3412
lradius 67.5003
lwrist 5.27465
lhand -19.2513 -62.3231
lfingers 7.12502
lthumb 7.06255 -32.4609
rfemur -98.994 -3.48893 34.1773
rtibia 98.1994
rfoot -34.0197 -17.4798
rtoes -4.87508
lfemur -99.6745 1.13231 -29.7743
ltibia 92.8049
lfoot -39.2519 -0.522903
ltoes -27.5042
213
root 8.93933 11.9559 22.4421 -131.309 -5.49086 -180.94
lowerback 40.511 1.69899 -0.201997
upperback 2.39085 1.09464 0.456426
thorax -17.2469 0.0659175 0.21516
lowerneck -12.7565 -2.66482 -4.07142
upperneck -22.507 -5.19084 7.41403
head -4.47092 -4.13181 3.1403
rclavicle -4.77083e-015 -2.98177e-015
rhumerus -62.0167 53.2038 -63.0251
rradius 88.7423
rwrist -4.52902
rhand -11.6055 -41.7791
rfingers 7.12502
rthumb 14.4371 -71.257
lclavicle -4.77083e-015 -2.98177e-015
lhumerus -85.9918 -18.5882 78.4847
lradius 66.4254
lwrist 4.86848
lhand -19.0342 -61.9696
lfingers 7.12502
lthumb 7.27211 -32.1146
rfemur -98.8559 -3.39876 34.206
rtibia 98.0056
rfoot -33.9532 -17.6223
rtoes -4.49804
lfemur -99.5844 1.14462 -29.7002
ltibia 92.6858
lfoot -39.192 -0.859286
ltoes -26.6786
214
root 8.95305 11.9809 22.3822 -131.145 -5.60548 -180.942
lowerback 40.5426 1.73084 -0.0793219
upperback 2.35177 1.2161 0.545215
thorax -17.3067 0.113046 0.189745
lowerneck -12.2119 -2.6947 -4.2252
upperneck -22.9505 -5.24259 7.28681
head -4.69127 -4.15716 3.15753
rclavicle 1.98785e-015 6.75868e-015
rhumerus -62.5143 50.3412 -64.8966
rradius 87.0825
rwrist -3.57555
rhand -12.1776 -41.898
rfingers 7.12502
rthumb 13.8858 -71.4145
lclavicle 1.98785e-015 6.75868e-015
lhumerus -84.9555 -17.9427 79.1545
lradius 66.0886
lwrist 5.77376
lhand -18.3175 -61.595
lfingers 7.12502
lthumb 7.96389 -31.765
rfemur -98.5508 -3.26448 34.1524
rtibia 97.7681
rfoot -34.0926 -17.6168
rtoes -3.63634
lfemur -99.3825 1.20002 -29.6134
ltibia 92.5462
lfoot -39.0658 -1.23169
ltoes -25.35
215
root 8.96854 12.0138 22.3161 -131.156 -5.68911 -180.915
lowerback 40.7288 1.68751 -0.0179243
upperback 2.46227 1.17424 0.635024
thorax -17.2382 0.0829626 0.280606
lowerneck -12.524 -2.60358 -4.52908
upperneck -23.0931 -5.14724 7.28716
head -4.6897 -4.11938 3.20993
rclavicle -3.97569e-016 -3.97569e-016
rhumerus -61.991 48.2743 -65.4566
rradius 86.083
rwrist -3.44771
rhand -12.766 -41.6864
rfingers 7.12502
rthumb 13.3188 -71.2408
lclavicle -3.97569e-016 -3.97569e-016
lhumerus -83.2959 -16.5251 79.423
lradius 65.3986
lwrist 6.39307
lhand -17.6655 -61.0681
lfingers 7.12502
lthumb 8.59318 -31.263
rfemur -97.9364 -3.13356 34.0947
rtibia 97.4646
rfoot -34.2619 -17.7408
rtoes -3.47205
lfemur -98.9248 1.37167 -29.5384
ltibia 92.3925
lfoot -39.1008 -1.14349
ltoes -25.8312
216
root 8.9827 12.0387 22.2514 -130.986 -5.84525 -180.897
lowerback 40.5998 1.64138 0.259989
upperback 2.4346 1.23934 0.538849
thorax -17.2167 0.093124 -0.00658211
lowerneck -12.0843 -2.63799 -4.27183
upperneck -23.4798 -5.22829 7.23885
head -4.88157 -4.19243 3.17825
rclavicle -1.51076e-014 -1.68967e-014
rhumerus -62.1205 45.546 -66.6508
rradius 85.1401
rwrist -2.82573
rhand -13.2477 -41.4179
rfingers 7.12502
rthumb 12.8544 -71.0021
lclavicle -1.51076e-014 -1.68967e-014
lhumerus -81.7114 -15.7235 79.8677
lradius 64.4502
lwrist 6.43527
lhand -18.1057 -61.6629
lfingers 7.12502
lthumb 8.16829 -31.8407
rfemur -97.5643 -3.01029 34.0794
rtibia 97.1759
rfoot -34.2081 -17.9395
rtoes -3.69293
lfemur -98.7645 1.4144 -29.3909
ltibia 92.3325
lfoot -38.8491 -1.05869
ltoes -26.2349
